<svg width="33" height="46" viewBox="0 0 33 46" fill="none" xmlns="http://www.w3.org/2000/svg">
<g clip-path="url(#clip0)">
<path d="M8.75 9.93701V20.9995C8.75 21.1984 8.82902 21.3892 8.96967 21.5298C9.11032 21.6705 9.30109 21.7495 9.5 21.7495H14V15.3745C14 15.0761 14.1185 14.79 14.3295 14.579C14.5405 14.368 14.8266 14.2495 15.125 14.2495H18.875C19.1734 14.2495 19.4595 14.368 19.6705 14.579C19.8815 14.79 20 15.0761 20 15.3745V21.7495H24.5C24.6989 21.7495 24.8897 21.6705 25.0303 21.5298C25.171 21.3892 25.25 21.1984 25.25 20.9995V9.93701" stroke="#8D8D8D" stroke-width="1.5" stroke-linecap="round" stroke-linejoin="round"/>
<path d="M27.5 12.0006L17.5105 2.43815C17.2761 2.19065 16.7281 2.18783 16.4895 2.43815L6.5 12.0006" stroke="#8D8D8D" stroke-width="1.5" stroke-linecap="round" stroke-linejoin="round"/>
<path d="M23.75 8.39062V3H21.5V6.23437" stroke="#8D8D8D" stroke-width="1.5" stroke-linecap="round" stroke-linejoin="round"/>
</g>
<path d="M1.42969 32.3926H2.60742V35.9492H7.08398V32.3926H8.26172V41H7.08398V36.9746H2.60742V41H1.42969V32.3926ZM12.4219 40.3203C13.1211 40.3203 13.5996 40.0566 13.8574 39.5293C14.1191 38.998 14.25 38.4082 14.25 37.7598C14.25 37.1738 14.1562 36.6973 13.9688 36.3301C13.6719 35.752 13.1602 35.4629 12.4336 35.4629C11.7891 35.4629 11.3203 35.709 11.0273 36.2012C10.7344 36.6934 10.5879 37.2871 10.5879 37.9824C10.5879 38.6504 10.7344 39.207 11.0273 39.6523C11.3203 40.0977 11.7852 40.3203 12.4219 40.3203ZM12.4629 34.543C13.2715 34.543 13.9551 34.8125 14.5137 35.3516C15.0723 35.8906 15.3516 36.6836 15.3516 37.7305C15.3516 38.7422 15.1055 39.5781 14.6133 40.2383C14.1211 40.8984 13.3574 41.2285 12.3223 41.2285C11.459 41.2285 10.7734 40.9375 10.2656 40.3555C9.75781 39.7695 9.50391 38.9844 9.50391 38C9.50391 36.9453 9.77148 36.1055 10.3066 35.4805C10.8418 34.8555 11.5605 34.543 12.4629 34.543ZM16.6113 34.7246H17.6543V35.6152C17.9043 35.3066 18.1309 35.082 18.334 34.9414C18.6816 34.7031 19.0762 34.584 19.5176 34.584C20.0176 34.584 20.4199 34.707 20.7246 34.9531C20.8965 35.0938 21.0527 35.3008 21.1934 35.5742C21.4277 35.2383 21.7031 34.9902 22.0195 34.8301C22.3359 34.666 22.6914 34.584 23.0859 34.584C23.9297 34.584 24.5039 34.8887 24.8086 35.498C24.9727 35.8262 25.0547 36.2676 25.0547 36.8223V41H23.959V36.6406C23.959 36.2227 23.8535 35.9355 23.6426 35.7793C23.4355 35.623 23.1816 35.5449 22.8809 35.5449C22.4668 35.5449 22.1094 35.6836 21.8086 35.9609C21.5117 36.2383 21.3633 36.7012 21.3633 37.3496V41H20.291V36.9043C20.291 36.4785 20.2402 36.168 20.1387 35.9727C19.9785 35.6797 19.6797 35.5332 19.2422 35.5332C18.8438 35.5332 18.4805 35.6875 18.1523 35.9961C17.8281 36.3047 17.666 36.8633 17.666 37.6719V41H16.6113V34.7246ZM29.2207 34.584C29.666 34.584 30.0977 34.6895 30.5156 34.9004C30.9336 35.1074 31.252 35.377 31.4707 35.709C31.6816 36.0254 31.8223 36.3945 31.8926 36.8164C31.9551 37.1055 31.9863 37.5664 31.9863 38.1992H27.3867C27.4062 38.8359 27.5566 39.3477 27.8379 39.7344C28.1191 40.1172 28.5547 40.3086 29.1445 40.3086C29.6953 40.3086 30.1348 40.127 30.4629 39.7637C30.6504 39.5527 30.7832 39.3086 30.8613 39.0312H31.8984C31.8711 39.2617 31.7793 39.5195 31.623 39.8047C31.4707 40.0859 31.2988 40.3164 31.1074 40.4961C30.7871 40.8086 30.3906 41.0195 29.918 41.1289C29.6641 41.1914 29.377 41.2227 29.0566 41.2227C28.2754 41.2227 27.6133 40.9395 27.0703 40.373C26.5273 39.8027 26.2559 39.0059 26.2559 37.9824C26.2559 36.9746 26.5293 36.1562 27.0762 35.5273C27.623 34.8984 28.3379 34.584 29.2207 34.584ZM30.9023 37.3613C30.8594 36.9043 30.7598 36.5391 30.6035 36.2656C30.3145 35.7578 29.832 35.5039 29.1562 35.5039C28.6719 35.5039 28.2656 35.6797 27.9375 36.0312C27.6094 36.3789 27.4355 36.8223 27.416 37.3613H30.9023Z" fill="#8D8D8D"/>
<defs>
<clipPath id="clip0">
<rect width="24" height="24" fill="white" transform="translate(5)"/>
</clipPath>
</defs>
</svg>
