<svg width="35" height="46" viewBox="0 0 35 46" fill="none" xmlns="http://www.w3.org/2000/svg">
<path d="M1.50977 32.3926H5.38281C6.14844 32.3926 6.76562 32.6094 7.23438 33.043C7.70312 33.4727 7.9375 34.0781 7.9375 34.8594C7.9375 35.5312 7.72852 36.1172 7.31055 36.6172C6.89258 37.1133 6.25 37.3613 5.38281 37.3613H2.67578V41H1.50977V32.3926ZM6.75977 34.8652C6.75977 34.2324 6.52539 33.8027 6.05664 33.5762C5.79883 33.4551 5.44531 33.3945 4.99609 33.3945H2.67578V36.377H4.99609C5.51953 36.377 5.94336 36.2656 6.26758 36.043C6.5957 35.8203 6.75977 35.4277 6.75977 34.8652ZM9.29102 34.7246H10.293V35.8086C10.375 35.5977 10.5762 35.3418 10.8965 35.041C11.2168 34.7363 11.5859 34.584 12.0039 34.584C12.0234 34.584 12.0566 34.5859 12.1035 34.5898C12.1504 34.5938 12.2305 34.6016 12.3438 34.6133V35.7266C12.2812 35.7148 12.2227 35.707 12.168 35.7031C12.1172 35.6992 12.0605 35.6973 11.998 35.6973C11.4668 35.6973 11.0586 35.8691 10.7734 36.2129C10.4883 36.5527 10.3457 36.9453 10.3457 37.3906V41H9.29102V34.7246ZM15.748 40.3203C16.4473 40.3203 16.9258 40.0566 17.1836 39.5293C17.4453 38.998 17.5762 38.4082 17.5762 37.7598C17.5762 37.1738 17.4824 36.6973 17.2949 36.3301C16.998 35.752 16.4863 35.4629 15.7598 35.4629C15.1152 35.4629 14.6465 35.709 14.3535 36.2012C14.0605 36.6934 13.9141 37.2871 13.9141 37.9824C13.9141 38.6504 14.0605 39.207 14.3535 39.6523C14.6465 40.0977 15.1113 40.3203 15.748 40.3203ZM15.7891 34.543C16.5977 34.543 17.2812 34.8125 17.8398 35.3516C18.3984 35.8906 18.6777 36.6836 18.6777 37.7305C18.6777 38.7422 18.4316 39.5781 17.9395 40.2383C17.4473 40.8984 16.6836 41.2285 15.6484 41.2285C14.7852 41.2285 14.0996 40.9375 13.5918 40.3555C13.084 39.7695 12.8301 38.9844 12.8301 38C12.8301 36.9453 13.0977 36.1055 13.6328 35.4805C14.168 34.8555 14.8867 34.543 15.7891 34.543ZM20.2012 33.7695C20.2168 33.332 20.293 33.0117 20.4297 32.8086C20.6758 32.4492 21.1504 32.2695 21.8535 32.2695C21.9199 32.2695 21.9883 32.2715 22.0586 32.2754C22.1289 32.2793 22.209 32.2852 22.2988 32.293V33.2539C22.1895 33.2461 22.1094 33.2422 22.0586 33.2422C22.0117 33.2383 21.9668 33.2363 21.9238 33.2363C21.6035 33.2363 21.4121 33.3203 21.3496 33.4883C21.2871 33.6523 21.2559 34.0742 21.2559 34.7539H22.2988V35.5859H21.2441V41H20.2012V35.5859H19.3281V34.7539H20.2012V33.7695ZM23.3125 33.5879V32.3926H24.3672V33.5879H23.3125ZM23.3125 34.7539H24.3672V41H23.3125V34.7539ZM25.9668 32.3926H27.0215V41H25.9668V32.3926ZM31.2227 34.584C31.668 34.584 32.0996 34.6895 32.5176 34.9004C32.9355 35.1074 33.2539 35.377 33.4727 35.709C33.6836 36.0254 33.8242 36.3945 33.8945 36.8164C33.957 37.1055 33.9883 37.5664 33.9883 38.1992H29.3887C29.4082 38.8359 29.5586 39.3477 29.8398 39.7344C30.1211 40.1172 30.5566 40.3086 31.1465 40.3086C31.6973 40.3086 32.1367 40.127 32.4648 39.7637C32.6523 39.5527 32.7852 39.3086 32.8633 39.0312H33.9004C33.873 39.2617 33.7812 39.5195 33.625 39.8047C33.4727 40.0859 33.3008 40.3164 33.1094 40.4961C32.7891 40.8086 32.3926 41.0195 31.9199 41.1289C31.666 41.1914 31.3789 41.2227 31.0586 41.2227C30.2773 41.2227 29.6152 40.9395 29.0723 40.373C28.5293 39.8027 28.2578 39.0059 28.2578 37.9824C28.2578 36.9746 28.5312 36.1562 29.0781 35.5273C29.625 34.8984 30.3398 34.584 31.2227 34.584ZM32.9043 37.3613C32.8613 36.9043 32.7617 36.5391 32.6055 36.2656C32.3164 35.7578 31.834 35.5039 31.1582 35.5039C30.6738 35.5039 30.2676 35.6797 29.9395 36.0312C29.6113 36.3789 29.4375 36.8223 29.418 37.3613H32.9043Z" fill="#8D8D8D"/>
<path d="M18.1587 2.62484C11.7613 2.53843 6.53867 7.76109 6.62508 14.1584C6.71039 20.2938 11.7061 25.2895 17.8415 25.3748C24.2399 25.4623 29.4615 20.2397 29.374 13.8423C29.2898 7.70585 24.2941 2.71015 18.1587 2.62484ZM25.0723 20.5213C25.0505 20.5449 25.0238 20.5634 24.9941 20.5754C24.9643 20.5875 24.9323 20.5929 24.9003 20.5913C24.8682 20.5896 24.8369 20.5809 24.8086 20.5658C24.7803 20.5507 24.7557 20.5295 24.7365 20.5038C24.2473 19.8638 23.6483 19.3159 22.9673 18.8856C21.575 17.992 19.8108 17.4998 18.0001 17.4998C16.1894 17.4998 14.4252 17.992 13.0328 18.8856C12.3519 19.3157 11.7528 19.8635 11.2637 20.5033C11.2445 20.529 11.2198 20.5501 11.1915 20.5652C11.1632 20.5803 11.1319 20.589 11.0999 20.5907C11.0678 20.5924 11.0358 20.587 11.0061 20.5749C10.9764 20.5628 10.9497 20.5443 10.9279 20.5208C9.32318 18.7885 8.41418 16.5249 8.37508 14.1639C8.28594 8.84226 12.6527 4.38796 17.9766 4.37484C23.3004 4.36171 27.6251 8.68476 27.6251 13.9998C27.6269 16.4178 26.7151 18.7472 25.0723 20.5213Z" fill="#8D8D8D"/>
<path d="M15.271 9.0309C15.9591 8.30149 16.9279 7.89966 18.0004 7.89966C19.0656 7.89966 20.0328 8.30416 20.7237 9.03745C21.4233 9.7805 21.7647 10.7802 21.6843 11.8535C21.5231 13.99 19.8711 15.7278 18.0004 15.7278C16.1296 15.7278 14.4744 13.99 14.3165 11.853C14.2387 10.7691 14.583 9.7602 15.271 9.0309Z" fill="#8D8D8D" stroke="#8D8D8D" stroke-width="0.046875"/>
</svg>
